<svg width="43" height="31" viewBox="0 0 43 31" fill="none" xmlns="http://www.w3.org/2000/svg">
<path d="M41.2293 12.6865L31.7599 1.52238C31.0945 0.710444 30.0708 0 28.8935 0H5.70616C3.65872 0 2.58381 1.37014 2.37907 3.34924L0.0245046 26.6924C-0.231426 28.4685 1.56009 30.0416 3.40279 30.0416H12.0021L14.459 10.5552C14.5102 9.94622 14.6125 9.591 14.9709 9.28652C15.3292 8.98205 15.7386 8.82981 16.2505 8.82981C16.6088 8.82981 16.8647 8.88055 17.1207 9.03279L28.5352 13.5492C29.2006 13.8029 29.6613 14.4119 29.6613 15.1223C29.6613 15.8328 29.2006 16.4417 28.5352 16.6954L19.2705 20.7551C17.9908 21.5163 17.5302 22.0745 17.1207 23.7999L16.4041 30.0416H27.3579C28.8935 30.0416 29.4565 29.2805 30.2243 28.5193L41.2293 17.3551C42.4066 15.985 42.4066 14.0566 41.2293 12.6865Z" fill="#00C684"/>
</svg>
