<svg width="16" height="16" viewBox="0 0 16 16" fill="none" xmlns="http://www.w3.org/2000/svg">
<g clip-path="url(#clip0)">
<path fill-rule="evenodd" clip-rule="evenodd" d="M2.3155 9.92012C1.25507 6.78067 2.94044 3.37599 6.07989 2.31555C6.99108 2.00778 8.91858 1.53426 11.2427 2.92875C11.4795 3.07082 11.7867 2.99404 11.9287 2.75725C12.0708 2.52046 11.994 2.21333 11.7572 2.07126C9.08139 0.46575 6.81499 1.01175 5.75988 1.36814C2.09719 2.60531 0.130918 6.57744 1.36809 10.2401C2.60526 13.9028 6.57739 15.8691 10.2401 14.6319C13.9028 13.3947 15.869 9.42262 14.6319 5.75993C14.4845 5.32372 14.2982 4.91118 14.0779 4.52504L15.8427 2.8641C16.0438 2.67485 16.0534 2.35841 15.8641 2.15732C15.6748 1.95623 15.3584 1.94664 15.1573 2.1359L7.04408 9.77189L4.88406 7.1799C4.70728 6.96777 4.39199 6.93911 4.17986 7.11589C3.96772 7.29268 3.93906 7.60796 4.11584 7.8201L6.61589 10.8201C6.70413 10.926 6.83218 10.9908 6.96978 10.9991C7.10737 11.0074 7.2423 10.9586 7.34268 10.8641L13.3252 5.23353C13.4641 5.50188 13.5846 5.78434 13.6845 6.07994C14.7449 9.21939 13.0595 12.6241 9.92007 13.6845C6.78062 14.7449 3.37594 13.0596 2.3155 9.92012Z" fill="#777777"/>
</g>
<defs>
<clipPath id="clip0">
<path d="M0 5C0 2.23858 2.23858 0 5 0H11C13.7614 0 16 2.23858 16 5V11C16 13.7614 13.7614 16 11 16H5C2.23858 16 0 13.7614 0 11V5Z" fill="white"/>
</clipPath>
</defs>
</svg>
